<?xml version="1.0" encoding="iso-8859-1"?>
<!-- Generator: Adobe Illustrator 19.0.0, SVG Export Plug-In . SVG Version: 6.00 Build 0)  -->
<svg version="1.1" id="Layer_1" xmlns="http://www.w3.org/2000/svg" xmlns:xlink="http://www.w3.org/1999/xlink" x="0px" y="0px"
	 viewBox="0 0 502 502" style="enable-background:new 0 0 502 502;" xml:space="preserve">
<g>
	<rect x="10" y="158.869" style="fill:#CCCCCC;" width="160.667" height="269.65"/>
	<rect x="170.667" y="73.48" style="fill:#FCEE21;" width="160.667" height="355.04"/>
	<g>
		<rect x="331.333" y="228.529" style="fill:#F7931E;" width="160.667" height="199.991"/>
		<path d="M492,438.52c5.522,0,10-4.478,10-10V228.53c0-5.522-4.478-10-10-10H341.333V73.48c0-5.522-4.478-10-10-10H170.667
			c-5.522,0-10,4.478-10,10v75.389H10c-5.522,0-10,4.478-10,10v269.65c0,5.522,4.478,10,10,10h482V438.52z M20,168.869h140.667
			v249.65H20V168.869z M321.333,418.52H180.667V83.48h140.666V418.52z M482,418.52H341.333V238.53H482V418.52z"/>
	</g>
	<g>
		<path d="M209.99,252.272c-5.522,0-10-4.478-10-10v-12.62c0-5.522,4.478-10,10-10s10,4.478,10,10v12.62
			C219.99,247.795,215.513,252.272,209.99,252.272z"/>
	</g>
	<g>
		<path d="M209.99,199.493c-5.522,0-10-4.478-10-10v-75.565c0-5.522,4.478-10,10-10s10,4.478,10,10v75.565
			C219.99,195.016,215.513,199.493,209.99,199.493z"/>
	</g>
	<g>
		<path d="M258.303,386.837c-5.522,0-10-4.478-10-10v-55.629l-12.212,12.212c-3.906,3.904-10.236,3.904-14.143,0
			c-3.905-3.905-3.905-10.237,0-14.143l29.283-29.283c2.859-2.859,7.161-3.713,10.898-2.168c3.736,1.548,6.173,5.194,6.173,9.239
			v79.771C268.303,382.359,263.825,386.837,258.303,386.837z"/>
	</g>
	<g>
		<path d="M116.701,386.837H71.772c-4.045,0-7.691-2.437-9.239-6.173c-1.547-3.737-0.691-8.038,2.168-10.898l36.539-36.54
			c5.028-5.027,3.267-10.964,2.606-12.664c-0.623-1.606-3.174-6.871-9.829-7.17c-0.259-0.013-0.498-0.018-0.739-0.018
			c-8.81,0-15.978,7.168-15.978,15.979c0,5.522-4.478,10-10,10s-10-4.478-10-10c0-19.839,16.14-35.979,35.978-35.979
			c0.558,0,1.111,0.013,1.66,0.038c12.438,0.561,23.004,8.191,27.554,19.914c4.645,11.969,1.92,25.013-7.11,34.042l-19.468,19.469
			h20.787c5.522,0,10,4.478,10,10S122.224,386.837,116.701,386.837z"/>
	</g>
	<g>
		<path d="M412.121,386.837c-16.606,0-30.116-13.51-30.116-30.116c0-5.522,4.478-10,10-10s10,4.478,10,10
			c0,5.578,4.538,10.116,10.116,10.116s10.116-4.538,10.116-10.116c0-5.479-4.443-9.77-10.116-9.77c-5.522,0-10-4.478-10-10
			s4.478-10,10-10c5.673,0,10.116-4.291,10.116-9.77c0-5.578-4.538-10.116-10.116-10.116s-10.116,4.538-10.116,10.116
			c0,5.522-4.478,10-10,10s-10-4.478-10-10c0-16.606,13.51-30.116,30.116-30.116s30.116,13.51,30.116,30.116
			c0,7.58-2.881,14.508-7.618,19.77c4.737,5.262,7.618,12.189,7.618,19.77C442.237,373.327,428.728,386.837,412.121,386.837z"/>
	</g>
</g>
<g>
</g>
<g>
</g>
<g>
</g>
<g>
</g>
<g>
</g>
<g>
</g>
<g>
</g>
<g>
</g>
<g>
</g>
<g>
</g>
<g>
</g>
<g>
</g>
<g>
</g>
<g>
</g>
<g>
</g>
</svg>
